/* XPM */
static const char * const dir_xpm[] = {
"16 16 105 2 0 0",
"   c #A0A490",
"!  c #7E8269",
"#  c #777B61",
"$  c #7A7E64",
"%  c #81856C",
"&  c #E0E2D1",
"'  c #EFF0E4",
"(  c #EEF0E3",
")  c #EEEFE2",
"*  c #E0E3CD",
"+  c #8C9078",
",  c #BABDAE",
"-  c #787C62",
".  c #EDEFE2",
"/  c #D4D8B7",
"0  c #D0D5B1",
"1  c #E8EAD9",
"2  c #9FA38B",
"3  c #ECEEE1",
"4  c #D1D6B3",
"5  c #CED3AE",
"6  c #DADEC2",
"7  c #E9EBDB",
"8  c #E8EAD8",
"9  c #E7E9D7",
":  c #E6E8D5",
";  c #E5E7D3",
"<  c #E4E7D2",
"=  c #DEE1CA",
">  c #EAECDE",
"?  c #BABE9E",
"@  c #7F8368",
"A  c #797D64",
"B  c #969A7D",
"C  c #D3D6C5",
"D  c #F0F2E7",
"E  c #EFF0E5",
"F  c #7E8268",
"G  c #E7EAD9",
"H  c #8B9074",
"I  c #E2E3D6",
"J  c #E2E4D4",
"K  c #DFE2D0",
"L  c #E1E3D3",
"M  c #E0E2D3",
"N  c #E1E3D4",
"O  c #E2E4D5",
"P  c #E2E4D6",
"Q  c #E5E7D9",
"R  c #EAEBDE",
"S  c #848870",
"T  c #E6E8D6",
"U  c #83886C",
"V  c #E7E8DB",
"W  c #DCDFC7",
"X  c #DADDC5",
"Y  c #DBDEC6",
"Z  c #DBDEC7",
"[  c #DCDEC8",
"]  c #DCDFC9",
"^  c #DDDFCA",
"_  c #E1E4D1",
"`  c #E0E2D2",
"a  c #90947C",
"b  c #E4E7D4",
"c  c #7D8166",
"d  c #E9EBDD",
"e  c #D5D9BA",
"f  c #D4D8BA",
"g  c #D4D8BB",
"h  c #D5D8BB",
"i  c #D5D9BB",
"j  c #D6DABC",
"k  c #D6DABD",
"l  c #D6DABE",
"m  c #D6DABF",
"n  c #D4D6C3",
"o  c #9D9F8B",
"p  c #E2E5D1",
"q  c #B5BA9B",
"r  c #CED3AF",
"s  c #D0D4B1",
"t  c #CFD4B1",
"u  c #CFD4B2",
"v  c #D1D5B3",
"w  c #D1D6B4",
"x  c #DDE0C8",
"y  c #C6C9B3",
"z  c #E1E4CE",
"{  c #D5DABB",
"|  c #E2E5CF",
"}  c #DDE0C7",
"~  c #B9BDA5",
" ! c #DFE2CC",
"!! c #D9DDC0",
"#! c #DEE1C8",
"$! c #DFE2C9",
"%! c #ACB097",
"&! c #7B7F65",
"'! c #E5E5E0",
"(! c #E6E6E3",
")! c #AAAC96",
"*! c #797C62",
"+! c #939681",
",! c None",
",!,!,!,!,!,!,!,!,!,!,!,!,!,!,!,!",
"  ! # # # $   ,!,!,!,!,!,!,!,!,!",
"% & ' ( ) * + , ,!,!,!,!,!,!,!,!",
"- . / 0 0 1 2 - # # # # $   ,!,!",
"# 3 4 5 5 6 7 8 9 : ; < = $   ,!",
"# > ? @ # # # # # # # # # # A   ",
"# 7 B C D D D D D D D D D D E F ",
"# G H I J K & L M L N O P Q R S ",
"# T U V W X Y Z Z [ ] ^ ] _ ` a ",
"# b c d e f g h i j k l m = n o ",
"# p q 9 5 r r s 0 t u v w x y o ",
"# z { | 5 5 5 5 5 5 5 5 5 } ~ o ",
"#  !!!#!5 5 5 5 5 5 5 5 5 $!%!o ",
"&!'!(!(!(!(!(!(!(!(!(!(!(!(!)!o ",
"  $ *!# # # # # # # # # # # +!o ",
",!,!,!,!,!,!,!,!,!,!,!,!,!,!,!,!"
};
