/* XPM */
static const char * const file_video_xpm[] = {
"16 16 4 1 0 0",
"  c #000000",
"! c #F3F3F2",
"# c #EEEEEC",
"$ c None",
"$              $",
"$ $$ !!!!!! $$ $",
"$ $$ ###### $$ $",
"$    ######    $",
"$ $$ ###### $$ $",
"$ $$ ###### $$ $",
"$    ######    $",
"$ $$ ###### $$ $",
"$ $$        $$ $",
"$    !!!!!!    $",
"$ $$ ###### $$ $",
"$ $$ ###### $$ $",
"$    ######    $",
"$ $$ ###### $$ $",
"$ $$ ###### $$ $",
"$              $"
};
