/* XPM */
static const char * const file_playlist_xpm[] = {
"16 16 15 1 0 0",
"  c #94B871",
"! c #44800A",
"# c #95B872",
"$ c #2C548E",
"% c #204A87",
"& c #45800B",
"' c #67BE12",
"( c #46810C",
") c #729FCF",
"* c #95B873",
"+ c #97B975",
", c #95B972",
"- c #97B974",
". c #98BA77",
"/ c None",
"////////////////",
"/ !#//$%%%%%%$//",
"/&'(//%))))))%//",
"/*(+//$%%%%%%$//",
"////////////////",
"////////////////",
"/,!-//$%%%%%%$//",
"/&'(//%))))))%//",
"/*(.//$%%%%%%$//",
"////////////////",
"////////////////",
"/ !#//$%%%%%%$//",
"/&'(//%))))))%//",
"/*(+//$%%%%%%$//",
"////////////////",
"////////////////"
};
