/* XPM */
static const char * const file_font_xpm[] = {
"16 16 61 1 0 0",
"  c #C2C5C1",
"! c #B8BAB4",
"# c #B6B8B2",
"$ c #C3C5C0",
"% c #B7BBB4",
"& c #F2F2F1",
"' c #FEFEFE",
"( c #FEFEFD",
") c #F2F2F2",
"* c #BCBFB9",
"+ c #BABCB7",
", c #B9BCB4",
"- c #F2F3F1",
". c #F1F2EF",
"/ c #EFF1EE",
"0 c #EEEFEC",
"1 c #ECEEEA",
"2 c #EBECE9",
"3 c #D9DBD9",
"4 c #DBDBDB",
"5 c #B9BCB5",
"6 c #F4F5F3",
"7 c #C5C6C3",
"8 c #EDEDEC",
"9 c #CCCDCA",
": c #F5F6F5",
"; c #B1B3AF",
"< c #9D9F9B",
"= c #ABACA8",
"> c #B1B2AF",
"? c #B5B8B1",
"@ c #F7F8F6",
"A c #EAECE9",
"B c #FDFDFD",
"C c #FEFFFE",
"D c #F8F9F8",
"E c #F5F6F4",
"F c #BDBEBC",
"G c #555753",
"H c #FFFFFF",
"I c #FAFAFA",
"J c #E9EAE8",
"K c #676966",
"L c #FCFCFB",
"M c #8B8D89",
"N c #ADAFAC",
"O c #FDFEFD",
"P c #C3C3C2",
"Q c #7C7F7B",
"R c #F6F7F5",
"S c #F0F0F0",
"T c #666864",
"U c #8E8F8C",
"V c #FBFCFB",
"W c #FAFAF9",
"X c #B8BCB4",
"Y c #F6F6F6",
"Z c #F3F3F1",
"[ c #C3C5C1",
"] c #B7BBB3",
"^ c None",
"^ !!!!!!!#$^^^^^",
"^%&'''''()*+^^^^",
"^,'-./01234**^^^",
"^5'6-./0178459^^",
"^5':6-./0;<=>?^^",
"^5'@:6-./01AB,^^",
"^5CD@E6FGG01B,^^",
"^5HID@JKGG/0B,^^",
"^5HLIDMNGG./O,^^",
"^5HBLPQRGG-.(,^^",
"^5HHSTGGGG6-',^^",
"^5HHUPLIGGE6',^^",
"^5HGGGBGGGGE',^^",
"^,HHHHHBVWD@'X^^",
"^%YHHHHHHHHHZ%^^",
"^[]!!!!!!!!!][^^"
};
