/* XPM */
static const char * const file_image_xpm[] = {
"16 16 106 2 0 0",
"   c #C2C5C1",
"!  c #B8BAB4",
"#  c #B6B8B2",
"$  c #C3C5C0",
"%  c #B7BBB4",
"&  c #F2F2F1",
"'  c #FEFEFE",
"(  c #FEFEFD",
")  c #F2F2F2",
"*  c #BCBFB9",
"+  c #BABCB7",
",  c #B9BCB4",
"-  c #F2F3F1",
".  c #F1F2EF",
"/  c #EFF1EE",
"0  c #EEEFEC",
"1  c #ECEEEA",
"2  c #EBECE9",
"3  c #D9DBD9",
"4  c #DBDBDB",
"5  c #B9BCB5",
"6  c #F4F5F3",
"7  c #C5C6C3",
"8  c #EDEDEC",
"9  c #CCCDCA",
":  c #F5F6F5",
";  c #B1B3AF",
"<  c #9D9F9B",
"=  c #ABACA8",
">  c #B1B2AF",
"?  c #B5B8B1",
"@  c #F7F8F6",
"A  c #EAECE9",
"B  c #FDFDFD",
"C  c #B8BBB4",
"D  c #787A76",
"E  c #898A86",
"F  c #ABADA9",
"G  c #DEDFDC",
"H  c #BDC0B9",
"I  c #F4F4F4",
"J  c #D2D3D1",
"K  c #878985",
"L  c #A8AAA7",
"M  c #EFF0EE",
"N  c #F7F8F7",
"O  c #F5F6F4",
"P  c #F8F9F8",
"Q  c #FBFBFB",
"R  c #B0B2B0",
"S  c #939592",
"T  c #FDFEFD",
"U  c #F3F4F2",
"V  c #F0F2EF",
"W  c #EFF1ED",
"X  c #FCFCFC",
"Y  c #ADAFAD",
"Z  c #A9ABA8",
"[  c #F1F2F0",
"]  c #EEF0ED",
"^  c #E9EBE7",
"_  c #EBEDEA",
"`  c #F9F9F9",
"a  c #848682",
"b  c #DEE0DD",
"c  c #F6F7F6",
"d  c #EBEDE9",
"e  c #E8EAE6",
"f  c #E5E7E3",
"g  c #C5C5C4",
"h  c #ACAEAA",
"i  c #BBBFB7",
"j  c #8D8F8A",
"k  c #8C8E88",
"l  c #E7E8E7",
"m  c #F4F5F4",
"n  c #E6E8E4",
"o  c #E4E6E1",
"p  c #EAEAEA",
"q  c #898B87",
"r  c #CED0CC",
"s  c #CFCFCC",
"t  c #8C8E89",
"u  c #FDFDFC",
"v  c #E4E7E2",
"w  c #E2E4DF",
"x  c #E1E4DE",
"y  c #797B77",
"z  c #B8BCB4",
"{  c #B6BAB3",
"|  c #CCCCCA",
"}  c #CCCECC",
"~  c #E3E5E0",
" ! c #E0E3DD",
"!! c #DFE2DC",
"#! c #F8F8F8",
"$! c #FFFFFF",
"%! c #F3F3F1",
"&! c #C7C9C4",
"'! c #B6BAB2",
"(! c #B7B9B3",
")! c #BDBFB9",
"*! c #BEC0BA",
"+! c #B7BBB3",
",! c #C3C5C1",
"-! c None",
"-!  ! ! ! ! ! ! ! # $ -!-!-!-!-!",
"-!% & ' ' ' ' ' ( ) * + -!-!-!-!",
"-!, ' - . / 0 1 2 3 4 * * -!-!-!",
"-!5 ' 6 - . / 0 1 7 8 4 5 9 -!-!",
"-!5 ' : 6 - . / 0 ; < = > ? -!-!",
"-!5 ' @ : 6 - . / 0 1 A B , -!-!",
"-!C D D E F G - . / 0 1 B , -!-!",
"-!H ' ' I J K L M . / 0 B , -!-!",
"-!H N O O P Q R S M . / T , -!-!",
"-!H O U V 0 W X Y Z - . ( , -!-!",
"-!H 6 [ ] 1 ^ _ ` a b - ' , -!-!",
"-!H ' ( c d e f U g h 6 ' , -!-!",
"-!i j k l m n o e p q O ' , -!-!",
"-!C r s t u v w x ` y @ ' z -!-!",
"-!{ | } t u ~  !!!#!y $!%!% -!-!",
"-!&!'!(!)!*!)!)!)!)!# ! +!,!-!-!"
};
