/* XPM */
static const char * const file_audio_xpm[] = {
"16 16 64 1 0 0",
"  c #587492",
"! c #A0B0C1",
"# c #4D6A87",
"$ c #55718D",
"% c #A9B8C7",
"& c #55708C",
"' c #ABBFD3",
"( c #5B7692",
") c #96B6D7",
"* c #A2BBD5",
"+ c #597390",
", c #A6B6C5",
"- c #4A6784",
". c #7097C1",
"/ c #7A9BBF",
"0 c #84A2C2",
"1 c #496684",
"2 c #4A6887",
"3 c #5D7691",
"4 c #4B6786",
"5 c #4C6A8A",
"6 c #506C89",
"7 c #637C97",
"8 c #8499AF",
"9 c #4B6785",
": c #57718C",
"; c #677E96",
"< c #A3ADB7",
"= c #8391A0",
"> c #8190A1",
"? c #99A5B4",
"@ c #486583",
"A c #8FA3B8",
"B c #9FB1C5",
"C c #566C84",
"D c #6F859E",
"E c #849AB4",
"F c #7D95AE",
"G c #7289A1",
"H c #6886A8",
"I c #5B738B",
"J c #90A7BF",
"K c #C1D5EA",
"L c #BBD1E8",
"M c #BAD0E8",
"N c #BBD0E8",
"O c #98B8DA",
"P c #4A6684",
"Q c #54708C",
"R c #678EB8",
"S c #79A4D1",
"T c #75A1D0",
"U c #7BA5D2",
"V c #7AA1C8",
"W c #4C6989",
"X c #5D81A8",
"Y c #6790BA",
"Z c #6C93BD",
"[ c #6589AF",
"] c #4F6D8D",
"^ c #8699AD",
"_ c #58728E",
"` c #6C849D",
"a c None",
"aaaaaaaaaaaaaaaa",
"aaaaaaa !aaaaaaa",
"aaaaaaa#$%aaaaaa",
"aaaaaaa&'(%aaaaa",
"aaaaaaa#)*+,aaaa",
"aaaaaaa-./0#%aaa",
"aaaaaaa123456%aa",
"aaaaaaa11aa718aa",
"aaaaaaa11aaa9:aa",
"aaaaaaa11aaa;+aa",
"aa!<=>?@1aaaABaa",
"a!CDEFGH1aaa!aaa",
"aIJKLMNOPaaaaaaa",
"aQRSTTUV9aaaaaaa",
"a!WXYZ[]^aaaaaaa",
"aa!G_&`!aaaaaaaa"
};
