/* XPM */
static const char * const file_xpm[] = {
"16 16 79 1 0 0",
"  c #000000",
"! c #FFFFFF",
"# c #F3F3F2",
"$ c #EEEEEC",
"% c #F0F0EE",
"& c #1A3C6D",
"' c #193969",
"( c #12294B",
") c #040911",
"* c #F1F1EF",
"+ c #1B3E71",
", c #94B0D0",
"- c #7893B6",
". c #1B3C6B",
"/ c #B1BDCE",
"0 c #84AAD3",
"1 c #BAD0E7",
"2 c #99B1CE",
"3 c #506A92",
"4 c #1B3E70",
"5 c #6F9BCB",
"6 c #6E97C3",
"7 c #B3C4D7",
"8 c #4D6D98",
"9 c #678FBC",
": c #46678E",
"; c #3B5A83",
"< c #3A6092",
"= c #7C91AE",
"> c #040404",
"? c #272727",
"@ c #1B3D70",
"A c #6D99C9",
"B c #1E4175",
"C c #0B192D",
"D c #436089",
"E c #355481",
"F c #F5F5F4",
"G c #1B3D6F",
"H c #6A95C6",
"I c #1A3D6E",
"J c #EFEFED",
"K c #204374",
"L c #EDEEED",
"M c #9BA9BD",
"N c #4E688F",
"O c #284979",
"P c #234576",
"Q c #294D7F",
"R c #6C98C8",
"S c #657C9D",
"T c #54739D",
"U c #A8BED7",
"V c #C2D4E8",
"W c #C1D3E8",
"X c #A4C0DF",
"Y c #6C98C9",
"Z c #224475",
"[ c #7EA3CC",
"] c #8CB0D6",
"^ c #75A0CF",
"_ c #78A2D0",
"` c #709AC7",
"a c #6793C2",
"b c #274878",
"c c #6F84A2",
"d c #2F5587",
"e c #557BA9",
"f c #597EA5",
"g c #5B7EA6",
"h c #4F749D",
"i c #2E5383",
"j c #7C90AE",
"k c #000101",
"l c #0C1B32",
"m c #17345F",
"n c #173561",
"o c #0D1D35",
"p c None",
"              pp",
" !! ###### !! pp",
" !! $$$$$$ !! pp",
"    $$$$$%&'()pp",
" !! $$$$$*+,-./p",
" !! $$$$$*+0123p",
"    $$$$$*45678/",
" !! $$$$$*49:;<=",
" !!     >?@ABCDE",
"    #####FGHI /=",
" !! $$J%*%+HK pp",
" !! $LMNOPQRK pp",
"    $STUVWXYI pp",
" !! $Z[]^_`ab pp",
" !! $cdefghij pp",
"     klmG@nok pp"
};
