/* XPM */
static const char * const file_subtitle_xpm[] = {
"16 16 63 1 0 0",
"  c #C2C5C1",
"! c #B8BAB4",
"# c #B6B8B2",
"$ c #C3C5C0",
"% c #B7BBB4",
"& c #F2F2F1",
"' c #FEFEFE",
"( c #FEFEFD",
") c #F2F2F2",
"* c #BCBFB9",
"+ c #BABCB7",
", c #B9BCB4",
"- c #F2F3F1",
". c #F1F2EF",
"/ c #EFF1EE",
"0 c #EEEFEC",
"1 c #ECEEEA",
"2 c #EBECE9",
"3 c #D9DBD9",
"4 c #DBDBDB",
"5 c #B9BCB5",
"6 c #F4F5F3",
"7 c #C5C6C3",
"8 c #EDEDEC",
"9 c #CCCDCA",
": c #F5F6F5",
"; c #B1B3AF",
"< c #9D9F9B",
"= c #ABACA8",
"> c #B1B2AF",
"? c #B5B8B1",
"@ c #F7F8F6",
"A c #EAECE9",
"B c #FDFDFD",
"C c #FEFFFE",
"D c #656764",
"E c #525451",
"F c #646663",
"G c #FFFFFF",
"H c #4D4F4D",
"I c #C4C5C4",
"J c #D3D3D3",
"K c #C4C4C4",
"L c #474A49",
"M c #FDFEFD",
"N c #414544",
"O c #C3C4C3",
"P c #C2C3C3",
"Q c #3C4040",
"R c #363B3C",
"S c #C6C7C7",
"T c #494E4F",
"U c #313638",
"V c #494D4F",
"W c #FBFCFB",
"X c #FAFAF9",
"Y c #F8F9F8",
"Z c #B8BCB4",
"[ c #F6F6F6",
"] c #F3F3F1",
"^ c #C3C5C1",
"_ c #B7BBB3",
"` c None",
"` !!!!!!!#$`````",
"`%&'''''()*+````",
"`,'-./01234**```",
"`5'6-./0178459``",
"`5':6-./0;<=>?``",
"`5'@:6-./01AB,``",
"`5CDEEEEEEEFB,``",
"`5GHIJJJJJKHB,``",
"`5GLLLLLLLLLM,``",
"`5GNOJJJJJPN(,``",
"`5GQQQQQQQQQ',``",
"`5GRRSJJJSRR',``",
"`5GTUUUUUUUV',``",
"`,GGGGGBWXY@'Z``",
"`%[GGGGGGGGG]%``",
"`^_!!!!!!!!!_^``"
};
