/* XPM */
static const char * const file_audio_track_xpm[] = {
"16 16 86 1 0 0",
"  c #C2C5C1",
"! c #B8BAB4",
"# c #B6B8B2",
"$ c #C3C5C0",
"% c #B7BBB4",
"& c #F2F2F1",
"' c #FEFEFE",
"( c #FEFEFD",
") c #F2F2F2",
"* c #BCBFB9",
"+ c #BABCB7",
", c #B9BCB4",
"- c #F2F3F1",
". c #F1F2EF",
"/ c #EFF1EE",
"0 c #EEEFEC",
"1 c #ECEEEA",
"2 c #EBECE9",
"3 c #D9DBD9",
"4 c #DBDBDB",
"5 c #B9BCB5",
"6 c #F4F5F3",
"7 c #E0E4E4",
"8 c #C5C6C3",
"9 c #EDEDEC",
": c #CCCDCA",
"; c #F5F6F5",
"< c #50719F",
"= c #989FA3",
"> c #9D9F9B",
"? c #ABACA8",
"@ c #B1B2AF",
"A c #B5B8B1",
"B c #F7F8F6",
"C c #DEE3E5",
"D c #3F6496",
"E c #D3DADE",
"F c #EAECE9",
"G c #FDFDFD",
"H c #FEFFFE",
"I c #F8F9F8",
"J c #F5F6F4",
"K c #C3CCDA",
"L c #849AB9",
"M c #A2B3C7",
"N c #7A92B3",
"O c #FFFFFF",
"P c #FAFAFA",
"Q c #9DAFC8",
"R c #EDF0F1",
"S c #F2F4F3",
"T c #4B6D9D",
"U c #D5DBE2",
"V c #E8EAEA",
"W c #416597",
"X c #FCFCFB",
"Y c #2D558E",
"Z c #C2CEDC",
"[ c #849BBA",
"] c #ACBACE",
"^ c #3B5F95",
"_ c #FDFEFD",
"` c #5676A4",
"a c #E1E6ED",
"b c #6986AD",
"c c #C3CDDB",
"d c #F2F4F2",
"e c #CED7E3",
"f c #4E709F",
"g c #F3F5F4",
"h c #C4CFDB",
"i c #617EA8",
"j c #EEF1F3",
"k c #E4E8EE",
"l c #5C7AA5",
"m c #BAC7D6",
"n c #889EBD",
"o c #708BB1",
"p c #AFBFD3",
"q c #F6F7F7",
"r c #B8BCB4",
"s c #F6F6F6",
"t c #F3F3F1",
"u c #C3C5C1",
"v c #B7BBB3",
"w c None",
"w !!!!!!!#$wwwww",
"w%&'''''()*+wwww",
"w,'-./01234**www",
"w5'6-./078945:ww",
"w5';6-./<=>?@Aww",
"w5'B;6-.CDEFG,ww",
"w5HIBJKL.MN1G,ww",
"w5OPQRSTUVW0G,ww",
"w5OXYZB[]-^/_,ww",
"w5OG`aIbcd^.(,ww",
"w5OOGXefghi-',ww",
"w5OOOGjkIlm6',ww",
"w5OOOOGXnoBJ',ww",
"w,OOOOOGpqIB'rww",
"w%sOOOOOOOOOt%ww",
"wuv!!!!!!!!!vuww"
};
