/* XPM */
static const char * const open_xpm[] = {
"16 16 76 1 0 0",
"  c #A0A490",
"! c #7E8269",
"# c #777B61",
"$ c #7A7E64",
"% c #81856C",
"& c #E4E6D7",
"' c #F2F3EA",
"( c #F0F2E6",
") c #EDEFE1",
"* c #898D74",
"+ c #BABDAE",
", c #787C62",
"- c #F1F2E8",
". c #CFD4B0",
"/ c #CED3AE",
"0 c #D0D5B1",
"1 c #EBEDDE",
"2 c #9DA28A",
"3 c #F2F3E9",
"4 c #CFD4AF",
"5 c #DFE2C9",
"6 c #F0F2E7",
"7 c #F0F1E6",
"8 c #EEF0E4",
"9 c #7B7F65",
": c #F1F2E7",
"; c #D0D4B1",
"< c #D0D5B2",
"= c #D1D6B3",
"> c #EEEFE5",
"? c #CDD2AE",
"@ c #CCD1AD",
"A c #EDEEE3",
"B c #C2C6A7",
"C c #C1C5A6",
"D c #EBECE2",
"E c #B7BBA1",
"F c #B5BAA0",
"G c #EAEBDF",
"H c #969982",
"I c #888C71",
"J c #898D72",
"K c #898D73",
"L c #92957C",
"M c #82866A",
"N c #E7E8DD",
"O c #7F836A",
"P c #D9DBCD",
"Q c #E9EBDB",
"R c #E6E8D8",
"S c #E9ECDB",
"T c #E0E2D4",
"U c #858972",
"V c #D7D7CB",
"W c #979A86",
"X c #E9EBE0",
"Y c #E0E3CE",
"Z c #DADDC7",
"[ c #E2E3DA",
"] c #E1E2D6",
"^ c #C4C6B8",
"_ c #E7E9DD",
"` c #E5E7D8",
"a c #C7CABB",
"b c #9A9D8A",
"c c #D3D5C1",
"d c #E6E7DD",
"e c #E0E2CF",
"f c #DCDEC9",
"g c #E0E3D1",
"h c #A0A38E",
"i c #797E63",
"j c #83876C",
"k c #84886D",
"l c #8B8E75",
"m c None",
"mmmmmmmmmmmmmmmm",
" !###$ mmmmmmmmm",
"%&''()*+mmmmmmmm",
",-./012,#####$ m",
",34//5677777789m",
",:4///;<<<<<=:,m",
",>?@@@@@@@@@?>,m",
",ABCCCCCCCCCBA,m",
",DEFFFFFFFFFED,m",
",GHIJJJJJJJJKLM ",
",NOPQRRRRRRRRSTU",
",VWXYZZZZZZZZR[U",
",]^_<00000000`ab",
"$cdefffffffffghb",
" $ijjjjjjjjjjklb",
"mmmmmmmmmmmmmmmm"
};
